<svg version="1.1" id="Layer_1" xmlns="http://www.w3.org/2000/svg" xmlns:xlink="http://www.w3.org/1999/xlink" x="0px" y="0px"
	 width="100%" viewBox="0 0 208 218" enable-background="new 0 0 208 218" xml:space="preserve">
<path fill="#28354C" opacity="1.000000" stroke="none" 
	d="
M209.000000,2.000000 
	C209.000000,64.354225 209.000000,126.708458 208.640045,189.470581 
	C204.121948,189.257736 203.290314,185.520996 203.374481,182.747406 
	C203.526077,177.751083 203.243378,173.854004 197.512421,172.340240 
	C196.713791,172.129272 196.082169,170.132339 195.920853,168.891022 
	C195.527908,165.867416 196.166382,162.524841 195.106750,159.811691 
	C192.962616,154.321732 189.956573,149.169571 187.327026,143.867661 
	C184.649368,138.468765 182.094971,133.004974 179.256958,127.692268 
	C178.635208,126.528328 177.042664,125.882957 175.790283,124.631653 
	C174.074722,121.721252 173.051178,118.246750 170.752167,116.802238 
	C162.515060,111.626724 153.800079,107.218666 145.353165,102.368294 
	C136.636093,97.362808 128.009201,92.199577 119.367378,87.064117 
	C116.264442,85.220177 113.559540,85.104271 110.274864,87.232430 
	C104.382347,91.050224 98.107048,94.277229 91.784149,97.502586 
	C89.656349,95.372025 87.736130,93.489998 85.789566,91.255463 
	C86.177216,90.415535 86.496536,89.759621 87.019356,89.465843 
	C95.361351,84.778328 103.684990,80.053680 112.132423,75.562447 
	C113.648567,74.756363 116.190170,74.107407 117.429649,74.822411 
	C132.381622,83.447578 147.148483,92.392761 162.033951,101.134720 
	C165.992889,103.459747 170.191101,105.377403 174.282074,107.483444 
	C174.822189,106.750320 175.355042,106.363853 175.359818,105.970940 
	C175.461273,97.651009 175.597565,89.328537 175.438385,81.012093 
	C175.418320,79.963875 173.975708,78.623695 172.867630,77.963554 
	C157.251785,68.660233 141.579666,59.451347 125.767715,49.946499 
	C124.959122,49.186165 124.304008,48.698895 123.679085,48.188076 
	C123.709274,48.164528 123.666519,48.230854 123.693817,47.817749 
	C122.120224,42.810997 120.483749,38.229378 118.925896,33.621174 
	C115.780251,24.316166 114.319550,14.411706 108.922432,5.899441 
	C108.259209,4.853410 108.298073,3.362229 108.479355,2.064266 
	C142.298080,2.034131 175.649048,2.017066 209.000000,2.000000 
z"/>
<path fill="#26334B" opacity="1.000000" stroke="none" 
	d="
M175.897202,124.998779 
	C177.042664,125.882957 178.635208,126.528328 179.256958,127.692268 
	C182.094971,133.004974 184.649368,138.468765 187.327026,143.867661 
	C189.956573,149.169571 192.962616,154.321732 195.106750,159.811691 
	C196.166382,162.524841 195.527908,165.867416 195.920853,168.891022 
	C196.082169,170.132339 196.713791,172.129272 197.512421,172.340240 
	C203.243378,173.854004 203.526077,177.751083 203.374481,182.747406 
	C203.290314,185.520996 204.121948,189.257736 208.640045,189.939240 
	C209.000000,198.354233 209.000000,206.708466 208.531342,215.531708 
	C177.709793,215.975082 147.356888,215.949478 116.951843,215.540131 
	C116.081184,212.301270 115.477318,209.361450 114.392326,206.611450 
	C112.879562,202.777267 111.065674,199.056732 109.272713,195.339630 
	C107.315575,191.282166 105.220947,187.291245 103.217010,183.256027 
	C102.588127,181.989700 101.989647,180.699371 101.502640,179.373932 
	C100.983971,177.962311 100.855576,176.360291 100.135330,175.078171 
	C97.582169,170.533371 94.849068,166.089645 92.578354,161.624893 
	C98.881104,165.507706 103.554779,162.675766 108.172127,158.969559 
	C109.525055,157.883606 111.178993,157.076691 112.817963,156.479309 
	C113.790810,156.124710 115.214119,156.040359 116.072098,156.504761 
	C119.633331,158.432388 122.973091,160.777588 126.571175,162.624649 
	C128.025116,163.371033 130.335434,164.009033 131.567200,163.369553 
	C138.414948,159.814331 145.019699,155.794846 151.773346,152.052887 
	C154.954956,150.290039 153.793076,148.830017 151.626465,147.455093 
	C147.662689,144.939713 143.672195,142.460510 139.616974,140.096405 
	C132.326859,135.846436 125.016541,131.627182 117.615990,127.575310 
	C116.605309,127.021950 114.771553,127.029930 113.752388,127.580490 
	C104.082687,132.804199 94.506798,138.201584 84.797119,143.092682 
	C84.772041,138.090683 83.356979,135.054535 78.106697,135.653336 
	C90.584160,128.167542 102.950531,121.026817 114.846909,114.157478 
	C121.709969,118.279312 128.093018,122.141296 134.504242,125.955887 
	C141.993790,130.412079 149.384521,135.057541 157.061630,139.165848 
	C161.119446,141.337341 164.936646,144.197693 170.526917,140.835129 
	C177.405060,136.697906 176.223358,130.966293 175.897202,124.998779 
z"/>
<path fill="#282828" opacity="1.000000" stroke="none" 
	d="
M117.003998,215.923874 
	C147.356888,215.949478 177.709793,215.975082 208.531342,216.000351 
	C209.923126,219.438095 207.680756,219.024002 205.499985,219.023087 
	C137.333344,218.994919 69.166687,219.000000 1.000019,219.000000 
	C1.000013,146.333344 1.000013,73.666702 1.000006,1.000026 
	C70.333336,1.000000 139.666672,1.000000 209.000000,1.500000 
	C175.649048,2.017066 142.298080,2.034131 108.009583,2.044546 
	C76.721825,2.048637 46.371605,2.059380 15.560808,2.057402 
	C13.435430,2.032029 11.760940,2.130119 10.107689,1.985467 
	C5.581448,1.589442 3.943141,3.587309 3.948870,8.101930 
	C4.034223,75.364906 4.036264,142.628052 3.954399,209.891022 
	C3.948899,214.410645 5.604253,216.063843 10.116905,216.047699 
	C45.745628,215.920151 81.374893,215.945526 117.003998,215.923874 
z"/>
<path fill="#243149" opacity="1.000000" stroke="none" 
	d="
M116.951843,215.540131 
	C81.374893,215.945526 45.745628,215.920151 10.116905,216.047699 
	C5.604253,216.063843 3.948899,214.410645 3.954399,209.891022 
	C4.036264,142.628052 4.034223,75.364906 3.948870,8.101930 
	C3.943141,3.587309 5.581448,1.589442 10.107689,1.985467 
	C11.760940,2.130119 13.435430,2.032029 15.711517,2.348297 
	C18.015102,5.485811 19.707401,8.319708 21.399700,11.153605 
	C22.090797,10.402171 20.392250,12.019526 20.632421,13.262177 
	C20.946667,14.888103 22.793064,16.217905 23.990953,17.688087 
	C20.814938,19.328741 20.713055,21.436716 24.083517,24.064835 
	C25.278687,24.996769 25.991156,26.725647 26.578249,28.225996 
	C28.303577,32.635181 29.855427,37.112247 32.014832,43.045410 
	C31.150068,45.506870 34.810097,54.056488 39.394135,56.892715 
	C35.436039,60.926941 35.474945,61.200340 40.523445,64.828293 
	C37.316082,70.002632 37.356365,70.084229 45.015224,73.083115 
	C41.195423,77.803955 44.962170,79.337250 48.153259,80.546509 
	C47.205006,82.474907 45.283169,84.883385 45.787968,85.613029 
	C48.129330,88.997292 51.143757,91.915909 53.994652,95.396690 
	C54.020485,96.861191 53.968857,97.930252 53.747658,99.105789 
	C53.691143,99.808395 53.804192,100.404518 53.995026,101.419617 
	C54.072811,103.760033 54.072811,105.681496 54.072811,108.696846 
	C60.566010,104.986839 66.052956,101.717613 71.667854,98.685303 
	C76.305367,96.180824 81.094154,93.956451 85.815910,91.607964 
	C87.736130,93.489998 89.656349,95.372025 91.494324,97.639816 
	C90.985626,98.034027 90.559181,98.042473 89.866287,98.151672 
	C89.064697,98.767754 88.529564,99.283096 87.752129,100.038368 
	C86.341713,100.853317 85.173599,101.428345 83.753349,102.111679 
	C82.998131,102.730568 82.495049,103.241158 81.702118,103.888977 
	C80.985786,104.034653 80.559303,104.043091 79.867950,104.148239 
	C79.066040,104.747482 78.528984,105.250015 77.702423,105.889832 
	C76.986794,106.035400 76.560684,106.043694 75.867950,106.152710 
	C75.066002,106.769035 74.530678,107.284645 73.758163,108.039413 
	C72.392227,108.869698 71.263489,109.460831 69.869659,110.148636 
	C69.067001,110.748016 68.529442,111.250725 67.703049,111.890701 
	C66.988937,112.036530 66.563652,112.045097 65.871399,112.154770 
	C65.068192,112.772339 64.531937,113.288803 63.738365,114.056213 
	C54.844021,117.305916 53.216572,123.700417 53.977787,132.052521 
	C54.670197,139.649719 60.799683,144.508484 68.126823,141.848648 
	C68.927948,141.247681 69.466866,140.748138 70.295593,140.110626 
	C71.012268,139.965363 71.439117,139.958069 72.129662,139.845215 
	C72.930061,139.226929 73.466782,138.714218 74.243996,137.959488 
	C75.654869,137.144470 76.825241,136.571442 77.995613,135.998413 
	C83.356979,135.054535 84.772041,138.090683 84.536980,143.208557 
	C83.633774,143.870270 82.883919,143.959793 81.870407,144.154968 
	C81.070099,144.773346 80.533440,145.286087 79.759621,146.038330 
	C78.393059,146.868301 77.263649,147.458740 75.941696,148.130615 
	C75.787575,148.808289 75.826012,149.404526 76.094864,150.253296 
	C77.881454,151.644989 79.414993,152.816742 80.998329,153.916840 
	C84.714264,156.498672 88.454025,159.046204 92.184151,161.607620 
	C94.849068,166.089645 97.582169,170.533371 100.135330,175.078171 
	C100.855576,176.360291 100.983971,177.962311 101.502640,179.373932 
	C101.989647,180.699371 102.588127,181.989700 103.217010,183.256027 
	C105.220947,187.291245 107.315575,191.282166 109.272713,195.339630 
	C111.065674,199.056732 112.879562,202.777267 114.392326,206.611450 
	C115.477318,209.361450 116.081184,212.301270 116.951843,215.540131 
z"/>
<path fill="#26324A" opacity="1.000000" stroke="none" 
	d="
M53.917191,95.001244 
	C51.143757,91.915909 48.129330,88.997292 45.787968,85.613029 
	C45.283169,84.883385 47.205006,82.474907 48.153259,80.546509 
	C44.962170,79.337250 41.195423,77.803955 45.015224,73.083115 
	C37.356365,70.084229 37.316082,70.002632 40.523445,64.828293 
	C35.474945,61.200340 35.436039,60.926941 39.394135,56.892715 
	C34.810097,54.056488 31.150068,45.506870 32.014832,43.045410 
	C29.855427,37.112247 28.303577,32.635181 26.578249,28.225996 
	C25.991156,26.725647 25.278687,24.996769 24.083517,24.064835 
	C20.713055,21.436716 20.814938,19.328741 23.990953,17.688087 
	C22.793064,16.217905 20.946667,14.888103 20.632421,13.262177 
	C20.392250,12.019526 22.090797,10.402171 21.399700,11.153605 
	C19.707401,8.319708 18.015102,5.485811 16.172094,2.361019 
	C46.371605,2.059380 76.721825,2.048637 107.541817,2.057615 
	C108.298073,3.362229 108.259209,4.853410 108.922432,5.899441 
	C114.319550,14.411706 115.780251,24.316166 118.925896,33.621174 
	C120.483749,38.229378 122.120224,42.810997 123.320557,47.848534 
	C120.798843,47.212666 118.733978,45.991787 116.532402,45.113636 
	C115.456413,44.684452 113.869354,44.409019 112.953506,44.894253 
	C108.092957,47.469463 103.351875,50.273888 98.606712,53.062405 
	C87.870110,59.371834 77.403770,66.200844 66.350731,71.892632 
	C57.965607,76.210556 51.730854,80.899719 54.085796,91.529160 
	C54.327579,92.620506 53.987358,93.840790 53.917191,95.001244 
z"/>
<path fill="#6DAEF2" opacity="1.000000" stroke="none" 
	d="
M53.994652,95.396690 
	C53.987358,93.840790 54.327579,92.620506 54.085796,91.529160 
	C51.730854,80.899719 57.965607,76.210556 66.350731,71.892632 
	C77.403770,66.200844 87.870110,59.371834 98.606712,53.062405 
	C103.351875,50.273888 108.092957,47.469463 112.953506,44.894253 
	C113.869354,44.409019 115.456413,44.684452 116.532402,45.113636 
	C118.733978,45.991787 120.798843,47.212666 123.293259,48.261635 
	C123.666519,48.230854 123.709274,48.164528 123.709717,48.540287 
	C124.447174,49.350552 125.184189,49.785057 125.921204,50.219559 
	C141.579666,59.451347 157.251785,68.660233 172.867630,77.963554 
	C173.975708,78.623695 175.418320,79.963875 175.438385,81.012093 
	C175.597565,89.328537 175.461273,97.651009 175.359818,105.970940 
	C175.355042,106.363853 174.822189,106.750320 174.282074,107.483444 
	C170.191101,105.377403 165.992889,103.459747 162.033951,101.134720 
	C147.148483,92.392761 132.381622,83.447578 117.429649,74.822411 
	C116.190170,74.107407 113.648567,74.756363 112.132423,75.562447 
	C103.684990,80.053680 95.361351,84.778328 87.019356,89.465843 
	C86.496536,89.759621 86.177216,90.415535 85.789566,91.255463 
	C81.094154,93.956451 76.305367,96.180824 71.667854,98.685303 
	C66.052956,101.717613 60.566010,104.986839 54.072811,108.696846 
	C54.072811,105.681496 54.072811,103.760033 54.069645,101.088821 
	C54.016727,99.892487 53.966976,99.445892 53.917229,98.999306 
	C53.968857,97.930252 54.020485,96.861191 53.994652,95.396690 
z"/>
<path fill="#6DAEF2" opacity="1.000000" stroke="none" 
	d="
M70.134750,110.051964 
	C71.263489,109.460831 72.392227,108.869698 74.071991,108.020035 
	C75.126877,107.191673 75.630730,106.621834 76.134583,106.052002 
	C76.560684,106.043694 76.986794,106.035400 78.016609,105.888298 
	C79.124481,105.183510 79.628647,104.617516 80.132812,104.051529 
	C80.559303,104.043091 80.985786,104.034653 82.011375,103.885857 
	C83.075478,103.164795 83.540482,102.584084 84.005486,102.003372 
	C85.173599,101.428345 86.341713,100.853317 88.066101,100.019653 
	C89.125832,99.190979 89.629288,98.620949 90.132751,98.050919 
	C90.559181,98.042473 90.985626,98.034027 91.701889,97.888351 
	C98.107048,94.277229 104.382347,91.050224 110.274864,87.232430 
	C113.559540,85.104271 116.264442,85.220177 119.367378,87.064117 
	C128.009201,92.199577 136.636093,97.362808 145.353165,102.368294 
	C153.800079,107.218666 162.515060,111.626724 170.752167,116.802238 
	C173.051178,118.246750 174.074722,121.721252 175.790283,124.631653 
	C176.223358,130.966293 177.405060,136.697906 170.526917,140.835129 
	C164.936646,144.197693 161.119446,141.337341 157.061630,139.165848 
	C149.384521,135.057541 141.993790,130.412079 134.504242,125.955887 
	C128.093018,122.141296 121.709969,118.279312 114.846909,114.157478 
	C102.950531,121.026817 90.584160,128.167542 78.106697,135.653336 
	C76.825241,136.571442 75.654869,137.144470 73.929993,137.978394 
	C72.872322,138.809784 72.369148,139.380280 71.865967,139.950790 
	C71.439117,139.958069 71.012268,139.965363 69.981148,140.111359 
	C68.872795,140.816742 68.368706,141.383408 67.864609,141.950073 
	C60.799683,144.508484 54.670197,139.649719 53.977787,132.052521 
	C53.216572,123.700417 54.844021,117.305916 64.053368,114.037811 
	C65.129921,113.196861 65.634140,112.625267 66.138367,112.053665 
	C66.563652,112.045097 66.988937,112.036530 68.017303,111.888954 
	C69.125168,111.183952 69.629959,110.617958 70.134750,110.051964 
z"/>
<path fill="#26324A" opacity="1.000000" stroke="none" 
	d="
M125.767715,49.946495 
	C125.184189,49.785057 124.447174,49.350552 123.679527,48.563835 
	C124.304008,48.698895 124.959122,49.186165 125.767715,49.946495 
z"/>
<path fill="#6DAEF2" opacity="1.000000" stroke="none" 
	d="
M76.134247,148.049179 
	C77.263649,147.458740 78.393059,146.868301 80.073784,146.019730 
	C81.128090,145.190842 81.631073,144.620087 82.134048,144.049332 
	C82.883919,143.959793 83.633774,143.870270 84.643776,143.664856 
	C94.506798,138.201584 104.082687,132.804199 113.752388,127.580490 
	C114.771553,127.029930 116.605309,127.021950 117.615990,127.575310 
	C125.016541,131.627182 132.326859,135.846436 139.616974,140.096405 
	C143.672195,142.460510 147.662689,144.939713 151.626465,147.455093 
	C153.793076,148.830017 154.954956,150.290039 151.773346,152.052887 
	C145.019699,155.794846 138.414948,159.814331 131.567200,163.369553 
	C130.335434,164.009033 128.025116,163.371033 126.571175,162.624649 
	C122.973091,160.777588 119.633331,158.432388 116.072098,156.504761 
	C115.214119,156.040359 113.790810,156.124710 112.817963,156.479309 
	C111.178993,157.076691 109.525055,157.883606 108.172127,158.969559 
	C103.554779,162.675766 98.881104,165.507706 92.578354,161.624893 
	C88.454025,159.046204 84.714264,156.498672 80.998329,153.916840 
	C79.414993,152.816742 77.881454,151.644989 76.126884,149.925888 
	C75.997078,148.913696 76.065666,148.481445 76.134247,148.049179 
z"/>
<path fill="#26334B" opacity="1.000000" stroke="none" 
	d="
M75.941696,148.130615 
	C76.065666,148.481445 75.997078,148.913696 75.896469,149.673370 
	C75.826012,149.404526 75.787575,148.808289 75.941696,148.130615 
z"/>
<path fill="#26334B" opacity="1.000000" stroke="none" 
	d="
M81.870407,144.154968 
	C81.631073,144.620087 81.128090,145.190842 80.310944,145.780212 
	C80.533440,145.286087 81.070099,144.773346 81.870407,144.154968 
z"/>
<path fill="#26334B" opacity="1.000000" stroke="none" 
	d="
M68.126816,141.848648 
	C68.368706,141.383408 68.872795,140.816742 69.691330,140.249329 
	C69.466866,140.748138 68.927948,141.247681 68.126816,141.848648 
z"/>
<path fill="#26334B" opacity="1.000000" stroke="none" 
	d="
M72.129654,139.845215 
	C72.369148,139.380280 72.872322,138.809784 73.689499,138.220398 
	C73.466782,138.714218 72.930061,139.226929 72.129654,139.845215 
z"/>
<path fill="#28354C" opacity="1.000000" stroke="none" 
	d="
M65.871399,112.154770 
	C65.634140,112.625267 65.129921,113.196861 64.310692,113.786865 
	C64.531937,113.288803 65.068192,112.772339 65.871399,112.154770 
z"/>
<path fill="#28354C" opacity="1.000000" stroke="none" 
	d="
M69.869659,110.148636 
	C69.629959,110.617958 69.125168,111.183952 68.306129,111.751694 
	C68.529442,111.250725 69.067001,110.748016 69.869659,110.148636 
z"/>
<path fill="#28354C" opacity="1.000000" stroke="none" 
	d="
M75.867950,106.152710 
	C75.630730,106.621834 75.126877,107.191673 74.309189,107.780884 
	C74.530678,107.284645 75.066002,106.769035 75.867950,106.152710 
z"/>
<path fill="#28354C" opacity="1.000000" stroke="none" 
	d="
M79.867950,104.148239 
	C79.628647,104.617516 79.124481,105.183510 78.306122,105.751022 
	C78.528984,105.250015 79.066040,104.747482 79.867950,104.148239 
z"/>
<path fill="#28354C" opacity="1.000000" stroke="none" 
	d="
M83.753349,102.111679 
	C83.540482,102.584084 83.075478,103.164795 82.301224,103.748627 
	C82.495049,103.241158 82.998131,102.730568 83.753349,102.111679 
z"/>
<path fill="#26324A" opacity="1.000000" stroke="none" 
	d="
M53.747658,99.105789 
	C53.966976,99.445892 54.016727,99.892487 53.991859,100.669861 
	C53.804192,100.404518 53.691143,99.808395 53.747658,99.105789 
z"/>
<path fill="#28354C" opacity="1.000000" stroke="none" 
	d="
M89.866295,98.151672 
	C89.629288,98.620949 89.125832,99.190979 88.308403,99.779724 
	C88.529564,99.283096 89.064697,98.767754 89.866295,98.151672 
z"/>
</svg>